Coordinates
version=1
nRows=7
nColumns=46
inDegrees=yes

Units are S.I. units (second, meters, Newtons, ...)
Angles are in degrees.

endheader
time	pelvis_tilt	pelvis_list	pelvis_rotation	pelvis_tx	pelvis_ty	pelvis_tz	bb_angle	bb_tx	bb_ty	bb_tz	hip_flexion_r	hip_adduction_r	hip_rotation_r	knee_angle_r	knee_angle_r_beta	ankle_angle_r	subtalar_angle_r	mtp_angle_r	crank_angle_r	hip_flexion_l	hip_adduction_l	hip_rotation_l	knee_angle_l	knee_angle_l_beta	ankle_angle_l	subtalar_angle_l	mtp_angle_l	crank_angle_l	lumbar_extension	lumbar_bending	lumbar_rotation	arm_flex_r	arm_add_r	arm_rot_r	elbow_flex_r	pro_sup_r	wrist_flex_r	wrist_dev_r	arm_flex_l	arm_add_l	arm_rot_l	elbow_flex_l	pro_sup_l	wrist_flex_l	wrist_dev_l
      5.00000000	    -26.88633440	     -8.74696122	    -13.42744912	      0.41594249	      1.05578513	     -0.23768919	      0.00000000	      0.50000000	      0.00000000	      0.25000000	     71.76748073	     11.01011096	      2.74198435	    115.23629688	      2.01125280	     24.41806767	      3.61220944	      0.00000000	      0.00000000	     30.07208599	    -19.75300513	     -9.95628747	     29.00042732	      0.50615294	     -9.93981841	     -0.58670107	      0.00000000	      0.00000000	    -46.76718008	      2.84254199	     15.05836003	     35.58438242	    -23.57651697	     18.87371846	     84.72268061	     51.93808050	      0.00000000	      0.00000000	     27.86601276	    -16.13351623	     11.72445976	     81.39605197	     47.13039158	      0.00000000	      0.00000000
      5.00500000	    -26.99843451	     -8.54243441	    -14.08122395	      0.41587596	      1.05664579	     -0.23735820	      0.00000000	      0.50000000	      0.00000000	      0.25000000	     72.79018021	     11.34290935	      2.82900061	    115.07611439	      2.00845709	     24.78936949	      3.90835284	      0.00000000	      0.00000000	     29.37095084	    -19.87543002	    -11.01858246	     28.93792725	      0.50506211	    -10.60430554	     -0.32244810	      0.00000000	      0.00000000	    -46.87482904	      2.81281819	     14.88717836	     36.99540483	    -23.84374286	     20.87888440	     84.17283224	     52.06453300	      0.00000000	      0.00000000	     27.17240217	    -15.62725740	      9.72527977	     81.30120293	     47.02600268	      0.00000000	      0.00000000
      5.01000000	    -27.29283275	     -8.34754971	    -14.66012488	      0.41573526	      1.05720170	     -0.23700791	      0.00000000	      0.50000000	      0.00000000	      0.25000000	     73.93554159	     11.62552409	      2.74286756	    114.77811742	      2.00325606	     25.06688370	      3.94691495	      0.00000000	      0.00000000	     29.02547148	    -20.00139875	    -11.96135879	     29.11874523	      0.50821798	    -11.27056669	     -0.47739985	      0.00000000	      0.00000000	    -46.76207624	      2.76905876	     14.93519192	     37.38208038	    -23.70118344	     21.28184422	     84.18409888	     52.10914672	      0.00000000	      0.00000000	     26.78170181	    -15.72073053	      9.39124426	     81.25020183	     47.01661041	      0.00000000	      0.00000000
      5.01500000	    -27.40082005	     -8.11469859	    -15.08636437	      0.41570509	      1.05809414	     -0.23685317	      0.00000000	      0.50000000	      0.00000000	      0.25000000	     74.83803898	     11.78239358	      2.75983496	    114.42019600	      1.99700915	     25.37984723	      4.07710009	      0.00000000	      0.00000000	     28.56226935	    -19.96485908	    -12.71042777	     29.39711894	      0.51307652	    -11.78547655	     -0.46909191	      0.00000000	      0.00000000	    -46.96732079	      2.78262654	     14.65686077	     38.56493594	    -23.79915867	     22.66480315	     83.91747326	     52.21152972	      0.00000000	      0.00000000	     26.20289100	    -15.40967317	      7.45461215	     81.71829981	     47.00742888	      0.00000000	      0.00000000
      5.02000000	    -27.57484491	     -7.95576110	    -15.46073112	      0.41562586	      1.05885374	     -0.23671600	      0.00000000	      0.50000000	      0.00000000	      0.25000000	     75.69589645	     11.93413647	      2.64037500	    113.85767655	      1.98719133	     25.60297768	      4.11568648	      0.00000000	      0.00000000	     28.29323751	    -20.00653018	    -13.33076245	     29.91199385	      0.52206278	    -12.08066584	     -0.64126646	      0.00000000	      0.00000000	    -47.09870261	      2.90763138	     14.15191535	     39.96978333	    -23.52140771	     24.38669632	     83.18125476	     52.27602022	      0.00000000	      0.00000000	     25.32314156	    -15.56124126	      6.15724784	     82.31432758	     47.13479275	      0.00000000	      0.00000000
      5.02500000	    -27.75129213	     -7.72361594	    -15.79670235	      0.41557616	      1.05968937	     -0.23657407	      0.00000000	      0.50000000	      0.00000000	      0.25000000	     76.50458794	     12.09371428	      2.65504543	    113.18065249	      1.97537504	     25.78182753	      4.16728149	      0.00000000	      0.00000000	     28.09097583	    -19.96412600	    -13.90578126	     30.50471472	      0.53240771	    -12.29695495	     -0.85358559	      0.00000000	      0.00000000	    -47.24138060	      2.85239191	     14.16287830	     40.34042360	    -23.44480974	     24.47753905	     83.34029949	     52.30734196	      0.00000000	      0.00000000	     25.22482548	    -15.53799000	      6.04644097	     82.27341466	     47.12975790	      0.00000000	      0.00000000
      5.03000000	    -27.91854751	     -7.49462206	    -16.13851450	      0.41551534	      1.06052180	     -0.23641705	      0.00000000	      0.50000000	      0.00000000	      0.25000000	     77.19630520	     12.22338877	      2.61196481	    112.34489126	      1.96078825	     25.94821115	      4.21015131	      0.00000000	      0.00000000	     27.96634000	    -19.93754199	    -14.40585287	     31.30974744	      0.54645818	    -12.37734783	     -1.15136560	      0.00000000	      0.00000000	    -47.38849524	      2.78139348	     14.07671087	     40.79418050	    -23.36541645	     24.79279886	     83.55799635	     52.36966736	      0.00000000	      0.00000000	     25.00133227	    -15.40732161	      5.95638033	     82.15549865	     47.11599897	      0.00000000	      0.00000000
